<svg xmlns="http://www.w3.org/2000/svg" xmlns:xlink="http://www.w3.org/1999/xlink" version="1.1" id="Layer_1" x="0px" y="0px" style="enable-background:new 0 0 595.28 841.89;" xml:space="preserve" viewBox="84.37 212.69 424.83 417.28">
<style type="text/css">
	.st0{fill:#FFFFFF;}
</style>
<g>
	<path class="st0" d="M496.73,431.63c-0.94,53.24-22.88,101.34-57.92,136.38c-35.82,35.81-85.28,57.96-139.93,57.96   c-54.65,0-104.11-22.15-139.93-57.96c-35.04-35.04-56.98-83.14-57.92-136.38h-4c1.9,109.86,91.53,198.33,201.85,198.34   c110.31,0,199.95-88.48,201.85-198.34H496.73z"/>
	<g>
		<g>
			<path class="st0" d="M165.52,498.2v-52.41c0-14.45,5.11-26.8,15.32-37.05c10.24-10.24,22.61-15.37,37.09-15.37     c14.45,0,26.8,5.12,37.05,15.37c0.78,0.78,1.54,1.57,2.28,2.37c0.72-0.81,1.46-1.6,2.24-2.37     c10.24-10.24,22.59-15.37,37.05-15.37c14.48,0,26.85,5.12,37.09,15.37c10.24,10.24,15.37,22.59,15.37,37.05h-26.25     c0-7.23-2.57-13.39-7.71-18.5c-5.11-5.14-11.27-7.71-18.5-7.71c-7.23,0-13.39,2.57-18.5,7.71c-5.14,5.11-7.71,11.27-7.71,18.5     v52.41h-26.21v-52.41c0-7.23-2.57-13.39-7.71-18.5c-5.11-5.14-11.27-7.71-18.5-7.71c-7.23,0-13.39,2.57-18.5,7.71     c-5.14,5.11-7.71,11.27-7.71,18.5v52.41H165.52z"/>
			<rect x="322.76" y="471.99" class="st0" width="26.25" height="26.21"/>
			<path class="st0" d="M349.01,509.49c7.23,0,13.39-2.57,18.5-7.71c5.14-5.08,7.71-11.24,7.71-18.5v-63.7h26.21v63.7     c0,14.49-5.12,26.83-15.37,37.05c-10.24,10.24-22.59,15.37-37.05,15.37V509.49z"/>
			<rect x="375.22" y="367.16" class="st0" width="26.21" height="26.21"/>
			<rect x="401.43" y="349.98" class="st0" width="17.81" height="17.81"/>
			<rect x="388.64" y="337.19" class="st0" width="12.79" height="12.79"/>
			<rect x="419.46" y="320.47" class="st0" width="12.79" height="12.79"/>
		</g>
	</g>
	<g>
		<path class="st0" d="M118.76,376.19l-0.99,4.37l-9.35,1.44l-9.28,0.92l8.05,4.83l7.75,5.25l-0.99,4.37l-29.58,3.81l1.31-5.77    l21.16-1.95l-18.19-11.11l0.76-3.35l21.25-2.34l-18.27-10.73l1.31-5.77L118.76,376.19z"/>
		<path class="st0" d="M138.85,330.53l-9.92,18.46c-8.21-4.41-16.45-8.84-24.66-13.26l9.92-18.46l4.51,2.42l-7.44,13.85l5.67,3.05    l7.18-13.35l4.33,2.33l-7.18,13.35l5.57,2.99l7.44-13.85L138.85,330.53z"/>
		<path class="st0" d="M150.24,283.61c1.63,1.42,2.51,3.57,1.67,6.29c2.91-1.81,6.32-0.43,7.65,0.73c4.7,4.11,3.13,8.95-0.69,13.31    c-2.92,3.34-5.82,6.66-8.74,10l-21.08-18.42c2.9-3.31,5.82-6.66,8.74-10C141.41,281.37,145.99,279.9,150.24,283.61z     M140.93,299.01l5.32-6.08c2.18-2.5,1.84-4.23,0.64-5.29c-0.96-0.84-3.27-1.48-5.49,1.05l-5.32,6.08L140.93,299.01z M149.84,306.8    l5.32-6.08c1.42-1.63,2.91-4.42,0.92-6.16c-1.9-1.66-4.92-0.21-6.34,1.42l-5.32,6.08L149.84,306.8z"/>
		<path class="st0" d="M215.72,244.22c3.43,6.2,2.97,14.55-5.69,19.14c-3.04,1.61-6.68,3.54-9.72,5.16l-13.13-24.74    c3.04-1.61,6.68-3.54,9.72-5.16C205.38,234.13,212.37,238.16,215.72,244.22z M202.56,261.58l5.09-2.7    c5.62-2.98,5.67-8.26,3.43-12.23c-2.15-3.8-6.46-6.45-11.83-3.6l-5.09,2.7L202.56,261.58z"/>
		<path class="st0" d="M260.88,244.54l-20.26,5.36c-2.39-9.01-4.78-18.06-7.17-27.07l20.26-5.36l1.31,4.95l-15.2,4.02l1.65,6.23    l14.65-3.88l1.26,4.76l-14.65,3.88l1.62,6.11l15.2-4.02L260.88,244.54z"/>
		<path class="st0" d="M296.44,241.09l-5.48,0.13l-12.31-27.84l5.92-0.14l8.96,21.59l7.96-22l5.92-0.14L296.44,241.09z"/>
		<path class="st0" d="M347.69,247.1l-20.51-4.31c1.92-9.12,3.84-18.28,5.76-27.4l20.51,4.31l-1.05,5.01l-15.38-3.23l-1.32,6.3    l14.83,3.12l-1.01,4.81l-14.83-3.12l-1.3,6.18l15.38,3.23L347.69,247.1z"/>
		<path class="st0" d="M383.27,230.11l-9.52,21.07l13.12,5.93l-2.01,4.45l-17.94-8.1l11.53-25.52L383.27,230.11z"/>
		<path class="st0" d="M431.68,276.63c-4.46,5.71-12.38,8.77-20.2,2.8c-7.82-5.97-7.15-14.37-2.68-20.22    c4.47-5.85,12.71-8.87,20.41-2.99C436.86,262.06,436.19,270.86,431.68,276.63z M412.88,262.42c-2.7,3.73-3.71,9.15,1.54,13.15    c5.25,4.01,10.23,1.57,13.08-2.04c2.93-3.7,4.03-9.5-1.21-13.51C421.04,256.02,415.65,258.6,412.88,262.42z"/>
		<path class="st0" d="M452.06,306.81l-4.97-6.17l-6.42,5.17l-3.32-4.11l21.8-17.58c2.76,3.43,5.56,6.83,8.32,10.25    C476.06,305.03,460.67,317.49,452.06,306.81z M450.85,297.61l4.97,6.17c4.24,5.26,11.94-1,7.72-6.23l-4.97-6.17L450.85,297.61z"/>
		<path class="st0" d="M471.69,355.44l-9.19-18.84c8.38-4.09,16.79-8.19,25.16-12.28l9.2,18.84l-4.6,2.25l-6.9-14.13l-5.79,2.83    l6.65,13.63l-4.42,2.16l-6.65-13.63l-5.68,2.77l6.9,14.13L471.69,355.44z"/>
		<path class="st0" d="M484.18,398.64l-1.42-6.12l7.28-10.06l-1.15-4.95l-9.12,2.11l-1.19-5.14l27.32-6.33    c1,4.33,1.97,8.66,2.97,12.99c1.45,6.44-2.05,10.82-6.76,11.92c-3.74,0.87-7.92,0.03-10.17-4.91l-7.4,10.42L484.18,398.64z     M502.26,374.41l-8.73,2.02l1.82,7.83c0.76,3.27,3.27,4.17,5.45,3.66s4.03-2.45,3.28-5.69L502.26,374.41z"/>
	</g>
</g>
</svg>